<?xml version="1.0" encoding="utf-8"?>
<!-- Generator: Adobe Illustrator 15.0.2, SVG Export Plug-In . SVG Version: 6.00 Build 0)  -->
<!DOCTYPE svg PUBLIC "-//W3C//DTD SVG 1.1//EN" "http://www.w3.org/Graphics/SVG/1.1/DTD/svg11.dtd">
<svg version="1.1" id="Layer_1" xmlns="http://www.w3.org/2000/svg" xmlns:xlink="http://www.w3.org/1999/xlink" x="0px" y="0px"
	 width="626.844px" height="179.897px" viewBox="0 0 626.844 179.897" enable-background="new 0 0 626.844 179.897"
	 xml:space="preserve">
<path fill="#BB2740" d="M72.33,111.208V36.522c0-11.793-3.331-20.75-9.998-26.637c-6.049-5.468-14.803-8.304-25.855-8.304H0.612
	C0.209,4.203,0,5.723,0,7.264c0,1.52,0.209,3.061,0.612,5.458h31.07c6.049,0,10.844,2.612,14.384,6.56
	c3.545,4.366,5.632,10.691,5.632,17.241v74.686H72.33"/>
<path fill-rule="evenodd" clip-rule="evenodd" fill="#BB2740" d="M115.988,142.65V36.083c-5.213,0.877-7.932,1.745-10.845,3.061
	c-3.749,1.745-6.468,3.928-9.589,6.774v96.732H115.988 M178.529,48.101c0-18.567-2.928-30.36-9.171-37.573
	c-5.841-6.549-14.175-8.947-26.274-8.947H95.345c-0.627,3.274-0.836,4.366-0.836,5.682c0,1.306,0.209,2.397,0.836,5.458h42.735
	c4.586,0,7.927,1.306,10.635,3.713c7.499,6.774,7.708,21.618,7.708,32.319c0,15.507-2.704,32.748-12.712,43.021
	c-3.749,4.152-8.753,6.978-15.221,8.518c0,1.959-0.418,3.703-0.418,5.672c0,1.52,0,3.274,0.418,5.243
	c13.339,0,23.556-5.243,31.478-13.099C172.689,85.001,178.529,64.689,178.529,48.101z"/>
<path fill="#BB2740" d="M249.182,102.476V35.431c0-10.702-2.499-20.312-9.386-26.422c-5.004-4.591-12.711-7.427-23.765-7.427
	h-13.339c-0.418,3.274-0.837,4.366-0.837,5.682c0,1.082,0.21,2.397,0.837,5.244h9.59c5.004,0,8.335,1.306,10.834,3.703
	c3.969,3.714,5.213,10.049,5.213,17.69V98.11c0,1.52-0.627,2.183-2.499,2.183h-28.351c-0.418,1.959-0.418,3.489-0.418,5.233
	c-0.21,1.745,0,3.5,0.209,5.682h43.153c3.545,0,5.631-0.662,6.886-2.183C248.764,107.485,249.182,105.313,249.182,102.476"/>
<path fill="#BB2740" d="M373.423,68.627V1.582h-20.22v70.31c0,8.732-2.081,18.128-7.498,23.597c-3.122,3.05-7.09,5.019-12.722,5.019
	h-22.515c-5.004,0-9.381-2.183-12.503-5.458c-3.126-3.061-5.004-7.427-5.422-11.803c12.304-1.52,21.271-5.886,27.514-12.222
	c8.968-8.947,12.926-21.842,12.926-36.461V1.582h-20.215v39.307c0,10.702-3.545,21.403-9.799,27.942
	c-2.3,2.418-5.213,4.162-8.962,5.244c-0.209,0-0.418,0-0.418,0c-0.837,0-1.255-0.214-1.255-1.082V1.582H272.11v67.045
	c0,13.762,3.759,25.117,11.053,32.748c6.254,6.335,15.013,9.834,26.26,9.834h24.806c12.313,0,21.28-3.285,27.523-9.171
	C369.894,94.611,373.423,82.807,373.423,68.627"/>
<path fill="#BB2740" d="M14.436,179.224v-1.479H9.998c0.612-0.408,1.178-1.03,1.678-1.796c1.474-2.254,2.372-5.938,2.372-10.538
	c0-4.458-0.75-7.784-2.184-9.773c-1.045-1.377-2.402-2.102-4.05-2.102H1.647v1.53h5.81c1.178,0,2.112,0.623,2.831,1.755
	c1.209,1.938,1.755,5.265,1.755,9.049c0,4.244-0.719,8.396-2.224,10.487c-0.647,0.867-1.433,1.388-2.361,1.388h-5.81v1.479H14.436"
	/>
<rect x="19.878" y="153.536" fill="#BB2740" width="1.974" height="25.688"/>
<path fill="#BB2740" d="M40.72,157.791v-4.255h-1.933v5.274c0,2.816-0.577,7.101-2.684,10.028c-0.367,0.459-0.796,0.918-1.255,1.326
	c-1.183-1.745-2.402-4.091-3.407-6.753c-1.076-2.918-1.933-6.295-2.331-9.876h-1.387c-0.367,0-0.469,0.052-0.469,0.408
	c0,0.051,0,0.153,0,0.204c0.28,3.02,0.928,5.988,2.035,8.957c1.117,3.07,2.729,6.142,4.882,9.264
	c0.78,1.173,2.463,3.529,3.361,4.702c0.106,0.153,0.179,0.266,0.179,0.367c0,0.144-0.107,0.245-0.22,0.245h-9.885
	c-0.031,0.163-0.031,0.47-0.031,0.725c0,0.306,0,0.612,0.031,0.816h11.788c0.47,0,0.791-0.511,0.791-1.071
	c0-0.307-0.071-0.674-0.291-0.929c-0.826-1.122-3.616-4.805-4.545-6.243c1.005-0.766,1.826-1.632,2.54-2.602
	C39.894,165.502,40.72,161.83,40.72,157.791"/>
<path fill="#BB2740" d="M48.657,167.41v-13.874h-1.964v15.915c0.459-0.153,0.856-0.47,1.138-0.816
	C48.157,168.277,48.407,167.869,48.657,167.41"/>
<path fill-rule="evenodd" clip-rule="evenodd" fill="#BB2740" d="M67.724,170.062v-16.526H65.72v17.445
	c0,2.306-0.429,3.948-1.153,5.07c-0.709,1.122-1.785,1.632-3.01,1.632h-1.178c-0.857-1.938-1.505-4.55-2.005-7.355
	c-1.106-5.938-1.535-12.803-1.714-16.792h-1.576c-0.296,0-0.429,0.103-0.429,0.511c0,0,0,0.051,0,0.102
	c0.209,3.326,0.53,9.773,1.934,15.863c0.638,2.714,1.459,5.417,2.611,7.672h-4.764c-0.077,0.408-0.077,0.622-0.077,0.725
	c0,0.143,0.046,0.204,0.077,0.816h7.12c1.903,0,3.377-0.816,4.372-2.204C67.117,175.388,67.724,173.032,67.724,170.062"/>
<path fill="#BB2740" d="M86.316,163.054c0-3.684-0.5-6.142-1.505-7.672c-0.821-1.285-2.045-1.847-3.652-1.847h-5.84
	c-0.107,0-0.209-0.153-0.209-0.255v-6.029h-1.943v6.846c0,0.673,0.219,1.03,0.647,1.03h6.738c1.03,0,1.826,0.407,2.361,1.173
	c0.898,1.275,1.22,3.529,1.22,6.754c0,4.447-0.827,8.6-2.725,11.507c-1.106,1.694-2.54,3.021-4.366,3.796
	c-0.076,0.561-0.117,0.602-0.117,0.765c0,0.103,0.041,0.255,0.117,0.612c2.402-0.714,4.336-2.204,5.795-4.306
	C85.139,172.266,86.316,167.767,86.316,163.054"/>
<rect x="92.096" y="153.536" fill="#BB2740" width="1.975" height="25.688"/>
<path fill-rule="evenodd" clip-rule="evenodd" fill="#BB2740" d="M120.028,179.224v-17.252c-0.353,0.113-0.75,0.316-1.107,0.623
	c-0.28,0.255-0.576,0.611-0.856,1.02v15.609H120.028 M131.174,179.224v-18.006c0-2.674-0.5-4.561-1.367-5.836
	c-0.888-1.234-2.184-1.847-3.76-1.847h-8.023c-0.03,0.153-0.071,0.459-0.071,0.827c0,0.244,0.041,0.551,0.071,0.765h7.238
	c1.224,0,2.152,0.459,2.76,1.224c0.826,1.072,1.178,2.766,1.178,4.867v18.006H131.174z"/>
<path fill-rule="evenodd" clip-rule="evenodd" fill="#BB2740" d="M149.812,166.788c0,3.683-0.617,7.417-2.081,9.569
	c-0.79,1.173-1.826,1.897-3.183,1.897c-1.402,0-2.51-0.775-3.336-1.999c-1.469-2.204-2.117-5.836-2.117-9.468
	c0-3.835,0.571-7.519,2.005-9.671c0.826-1.275,1.943-1.989,3.372-1.989c1.433,0,2.54,0.755,3.366,2.04
	C149.194,159.371,149.812,162.953,149.812,166.788 M151.924,166.278c0-4.255-0.934-8.08-2.611-10.437
	c-1.077-1.438-2.403-2.306-4.015-2.306h-8.034c-0.03,0.562-0.061,0.673-0.061,0.775c0,0.092,0.03,0.144,0.106,0.816h4.111
	c-0.709,0.51-1.326,1.173-1.856,1.989c-1.684,2.459-2.51,6.039-2.51,9.671c0,3.999,1.005,7.988,2.867,10.498
	c1.178,1.581,2.754,2.611,4.626,2.611c2.005,0,3.54-1.03,4.688-2.611C151.128,174.613,151.924,170.328,151.924,166.278z"/>
<path fill="#BB2740" d="M170.175,154.311c0-0.265-0.046-0.571-0.077-0.775h-13.14c-0.041,0.204-0.076,0.459-0.076,0.775
	c0,0.296,0.035,0.603,0.076,0.816h9.381v24.097h1.933v-24.097h1.826C170.129,154.914,170.175,154.607,170.175,154.311"/>
<path fill="#BB2740" d="M182.289,178.408v-17.547c0-2.469-0.429-4.305-1.296-5.529c-0.811-1.184-2.065-1.796-3.759-1.796h-0.857
	c-0.071,0.266-0.071,0.459-0.071,0.775c0,0.245,0,0.511,0.071,0.755h0.755c1.071,0,1.826,0.469,2.356,1.336
	c0.546,0.97,0.827,2.459,0.827,4.459v16.577c0,0.194-0.071,0.245-0.179,0.245h-4.974v1.541h6.555
	C182.11,179.224,182.289,178.958,182.289,178.408"/>
<path fill-rule="evenodd" clip-rule="evenodd" fill="#BB2740" d="M190.241,179.224v-17.252c-0.367,0.113-0.755,0.316-1.106,0.623
	c-0.296,0.255-0.577,0.611-0.867,1.02v15.609H190.241 M201.377,179.224v-18.006c0-2.674-0.5-4.561-1.357-5.836
	c-0.897-1.234-2.183-1.847-3.765-1.847h-8.019c-0.046,0.153-0.076,0.459-0.076,0.827c0,0.244,0.03,0.551,0.076,0.765h7.229
	c1.219,0,2.152,0.459,2.754,1.224c0.826,1.072,1.184,2.766,1.184,4.867v18.006H201.377z"/>
<path fill="#BB2740" d="M219.979,163.054c0-3.684-0.511-6.142-1.516-7.672c-0.811-1.285-2.035-1.847-3.642-1.847h-5.841
	c-0.106,0-0.219-0.153-0.219-0.255v-6.029h-1.934v6.846c0,0.673,0.22,1.03,0.648,1.03h6.728c1.046,0,1.826,0.407,2.372,1.173
	c0.888,1.275,1.209,3.529,1.209,6.754c0,4.447-0.821,8.6-2.714,11.507c-1.117,1.694-2.551,3.021-4.377,3.796
	c-0.065,0.561-0.106,0.602-0.106,0.765c0,0.103,0.041,0.255,0.106,0.612c2.403-0.714,4.336-2.204,5.805-4.306
	C218.791,172.266,219.979,167.767,219.979,163.054"/>
<path fill-rule="evenodd" clip-rule="evenodd" fill="#BB2740" d="M245.784,179.224v-17.252c-0.367,0.113-0.765,0.316-1.117,0.623
	c-0.28,0.255-0.576,0.611-0.856,1.02v15.609H245.784 M256.92,179.224v-18.006c0-2.674-0.5-4.561-1.367-5.836
	c-0.888-1.234-2.184-1.847-3.76-1.847h-8.023c-0.03,0.153-0.066,0.459-0.066,0.827c0,0.244,0.036,0.551,0.066,0.765h7.238
	c1.214,0,2.152,0.459,2.76,1.224c0.821,1.072,1.178,2.766,1.178,4.867v18.006H256.92z"/>
<rect x="262.877" y="153.536" fill="#BB2740" width="1.975" height="25.688"/>
<path fill="#BB2740" d="M283.036,179.224v-1.479h-4.438c0.602-0.408,1.178-1.03,1.678-1.796c1.475-2.254,2.361-5.938,2.361-10.538
	c0-4.458-0.749-7.784-2.183-9.773c-1.03-1.377-2.393-2.102-4.04-2.102h-6.167v1.53h5.81c1.184,0,2.112,0.623,2.821,1.755
	c1.225,1.938,1.755,5.265,1.755,9.049c0,4.244-0.709,8.396-2.214,10.487c-0.648,0.867-1.434,1.388-2.362,1.388h-5.81v1.479H283.036"
	/>
<path fill="#BB2740" d="M296.002,179.224c-0.367-1.837-0.724-6.295-0.724-10.641v-8.232c0-4.918-1.607-6.815-5.056-6.815h-1.933
	c-0.062,0.266-0.062,0.459-0.062,0.775c0,0.245,0,0.511,0.062,0.755h1.831c2.224,0,3.183,1.49,3.183,5.285v7.569
	c0,2.755-0.749,5.938-2.183,7.876c-0.821,1.173-1.826,1.948-3.081,1.999c-0.071,0.296-0.179,1.122-0.25,1.429
	c-0.071,0.356-0.179,0.255-0.209,0.673c1.535,0,2.76-0.826,3.719-2.152c0.867-1.184,1.504-2.815,1.902-4.611
	c0.03-0.204,0.102-0.306,0.179-0.306c0.071,0,0.112,0.102,0.112,0.306c0.061,1.234,0.459,5.07,0.785,6.091H296.002"/>
<path fill-rule="evenodd" clip-rule="evenodd" fill="#BB2740" d="M332.494,166.788c0,3.683-0.612,7.417-2.081,9.569
	c-0.786,1.173-1.816,1.897-3.184,1.897c-1.387,0-2.51-0.775-3.336-1.999c-1.464-2.204-2.111-5.836-2.111-9.468
	c0-3.835,0.576-7.519,2.005-9.671c0.826-1.275,1.933-1.989,3.382-1.989c1.428,0,2.529,0.755,3.356,2.04
	C331.882,159.371,332.494,162.953,332.494,166.788 M334.616,166.278c0-4.255-0.938-8.08-2.633-10.437
	c-1.061-1.438-2.387-2.306-3.999-2.306h-8.028c-0.03,0.562-0.076,0.673-0.076,0.775c0,0.092,0.046,0.144,0.117,0.816h4.116
	c-0.72,0.51-1.326,1.173-1.862,1.989c-1.678,2.459-2.504,6.039-2.504,9.671c0,3.999,1,7.988,2.861,10.498
	c1.179,1.581,2.765,2.611,4.621,2.611c2,0,3.551-1.03,4.693-2.611C333.82,174.613,334.616,170.328,334.616,166.278z"/>
<path fill-rule="evenodd" clip-rule="evenodd" fill="#BB2740" d="M342.94,152.107c-0.255-0.918-0.979-2.355-1.581-2.917
	c-0.275,3.265-1.071,6.192-2.01,8.896c0.081,0.408,0.296,1.184,0.51,1.49C340.757,158.25,342.614,153.944,342.94,152.107
	 M346.368,152.107c-0.245-0.918-1-2.355-1.571-2.917c-0.285,3.265-1.102,6.192-1.999,8.896c0.041,0.408,0.285,1.184,0.469,1.49
	C344.165,158.25,346.052,153.944,346.368,152.107z"/>
<path fill="#BB2740" d="M353.407,167.41v-13.874h-1.979v15.915c0.47-0.153,0.857-0.47,1.153-0.816
	C352.897,168.277,353.152,167.869,353.407,167.41"/>
<path fill="#BB2740" d="M371.607,179.224v-1.479h-4.448c0.612-0.408,1.184-1.03,1.684-1.796c1.479-2.254,2.377-5.938,2.377-10.538
	c0-4.458-0.755-7.784-2.204-9.773c-1.03-1.377-2.387-2.102-4.039-2.102h-6.162v1.53h5.814c1.174,0,2.102,0.623,2.826,1.755
	c1.214,1.938,1.755,5.265,1.755,9.049c0,4.244-0.725,8.396-2.224,10.487c-0.644,0.867-1.438,1.388-2.357,1.388h-5.814v1.479H371.607
	"/>
<rect x="465.667" fill="#BB2741" width="19.761" height="16.904"/>
<rect x="465.667" y="46.897" fill="#BB2741" width="19.761" height="53.569"/>
<rect x="533.62" y="22.393" fill="#BB2741" width="73.677" height="19.75"/>
<rect x="552.086" fill="#BB2741" width="19.761" height="16.904"/>
<rect x="509.229" fill="#BB2741" width="19.761" height="58.568"/>
<rect x="553.279" y="46.897" fill="#BB2741" width="19.75" height="53.569"/>
<rect x="489.702" y="63.7" fill="#BB2741" width="58.803" height="19.75"/>
<rect x="429.706" y="104.986" fill="#BB2741" width="75.115" height="19.761"/>
<polyline fill="#BB2741" points="441.877,22.393 504.821,22.393 504.821,42.144 449.731,42.144 440.051,52.896 449.731,63.567 
	460.771,63.567 460.771,83.338 442.713,83.338 411.537,53.559 441.877,22.393 "/>
<polyline fill="#BB2741" points="596.493,124.726 533.549,124.726 533.549,104.965 588.639,104.965 598.33,94.223 588.639,83.542 
	577.6,83.542 577.6,63.792 595.678,63.792 626.844,93.55 596.493,124.726 "/>
<polyline fill="#BB2741" points="509.229,87.592 528.989,87.592 528.989,138.263 540.996,149.874 551.667,140.181 551.667,129.144 
	571.418,129.144 571.418,147.201 541.649,178.387 518.828,156.167 497.608,178.387 466.442,148.037 466.442,128.685 
	486.203,128.685 486.203,140.181 496.945,149.874 509.229,138.244 509.229,87.592 "/>
</svg>
